<mxfile host="65bd71144e">
    <diagram id="pKNVkOOhElvfLOIV4G-f" name="Page-1">
        <mxGraphModel dx="1042" dy="501" grid="0" gridSize="10" guides="1" tooltips="1" connect="1" arrows="1" fold="1" page="1" pageScale="1" pageWidth="850" pageHeight="1100" math="0" shadow="0">
            <root>
                <mxCell id="0"/>
                <mxCell id="1" parent="0"/>
                <mxCell id="uoYHzHLX4QK36aJURJ65-27" value="" style="rounded=0;whiteSpace=wrap;html=1;dashed=1;" vertex="1" parent="1">
                    <mxGeometry x="501.24" y="320" width="140" height="280" as="geometry"/>
                </mxCell>
                <mxCell id="uoYHzHLX4QK36aJURJ65-24" value="" style="rounded=0;whiteSpace=wrap;html=1;dashed=1;" vertex="1" parent="1">
                    <mxGeometry x="110" y="320" width="140" height="280" as="geometry"/>
                </mxCell>
                <mxCell id="5" value="" style="rounded=0;whiteSpace=wrap;html=1;dashed=1;" parent="1" vertex="1">
                    <mxGeometry x="361.24" y="320" width="140" height="280" as="geometry"/>
                </mxCell>
                <mxCell id="8" value="&lt;b&gt;Presentation Layer&lt;/b&gt;" style="text;html=1;align=center;verticalAlign=middle;whiteSpace=wrap;rounded=0;" parent="1" vertex="1">
                    <mxGeometry x="110" y="290" width="141.24" height="30" as="geometry"/>
                </mxCell>
                <mxCell id="uoYHzHLX4QK36aJURJ65-17" style="edgeStyle=none;html=1;entryX=0;entryY=0.5;entryDx=0;entryDy=0;endArrow=none;endFill=0;" edge="1" parent="1" source="11" target="12">
                    <mxGeometry relative="1" as="geometry"/>
                </mxCell>
                <mxCell id="11" value="React Web&#10;Application" style="shape=image;verticalLabelPosition=bottom;labelBackgroundColor=#ffffff;verticalAlign=top;aspect=fixed;imageAspect=0;image=https://upload.wikimedia.org/wikipedia/commons/thumb/a/a7/React-icon.svg/539px-React-icon.svg.png;" vertex="1" parent="1">
                    <mxGeometry x="151.24" y="355" width="57.52" height="50" as="geometry"/>
                </mxCell>
                <mxCell id="uoYHzHLX4QK36aJURJ65-16" style="edgeStyle=none;html=1;entryX=0;entryY=0.5;entryDx=0;entryDy=0;endArrow=none;endFill=0;" edge="1" parent="1" source="12" target="14">
                    <mxGeometry relative="1" as="geometry"/>
                </mxCell>
                <mxCell id="12" value="Express Application&#10;Server" style="shape=image;verticalLabelPosition=bottom;labelBackgroundColor=#ffffff;verticalAlign=top;aspect=fixed;imageAspect=0;image=https://upload.wikimedia.org/wikipedia/commons/6/64/Expressjs.png;" vertex="1" parent="1">
                    <mxGeometry x="381.24" y="365" width="98.93" height="30" as="geometry"/>
                </mxCell>
                <mxCell id="13" value="RDBMS" style="shape=image;verticalLabelPosition=bottom;labelBackgroundColor=#ffffff;verticalAlign=top;aspect=fixed;imageAspect=0;image=https://cdn.iconscout.com/icon/free/png-256/postgresql-11-1175122.png;" vertex="1" parent="1">
                    <mxGeometry x="543.24" y="450" width="56" height="56" as="geometry"/>
                </mxCell>
                <mxCell id="15" style="edgeStyle=none;html=1;endArrow=none;endFill=0;exitX=0.5;exitY=1;exitDx=0;exitDy=0;" edge="1" parent="1" source="14" target="13">
                    <mxGeometry relative="1" as="geometry"/>
                </mxCell>
                <mxCell id="14" value="ORM" style="shape=image;verticalLabelPosition=bottom;labelBackgroundColor=#ffffff;verticalAlign=top;aspect=fixed;imageAspect=0;image=https://sequelize.org/img/logo.svg;" vertex="1" parent="1">
                    <mxGeometry x="546.11" y="351" width="50.26" height="58" as="geometry"/>
                </mxCell>
                <mxCell id="uoYHzHLX4QK36aJURJ65-20" style="edgeStyle=none;html=1;entryX=0;entryY=0.5;entryDx=0;entryDy=0;endArrow=none;endFill=0;" edge="1" parent="1" source="uoYHzHLX4QK36aJURJ65-18" target="uoYHzHLX4QK36aJURJ65-19">
                    <mxGeometry relative="1" as="geometry"/>
                </mxCell>
                <mxCell id="uoYHzHLX4QK36aJURJ65-18" value="ESP32" style="shape=image;verticalLabelPosition=bottom;labelBackgroundColor=#ffffff;verticalAlign=top;aspect=fixed;imageAspect=0;image=https://sc04.alicdn.com/kf/H14c853755d414d4f972907fe9f1010acP.jpg;" vertex="1" parent="1">
                    <mxGeometry x="152.5" y="490" width="55" height="55" as="geometry"/>
                </mxCell>
                <mxCell id="uoYHzHLX4QK36aJURJ65-21" style="edgeStyle=none;html=1;entryX=0;entryY=0.5;entryDx=0;entryDy=0;endArrow=none;endFill=0;exitX=1;exitY=0.5;exitDx=0;exitDy=0;" edge="1" parent="1" source="uoYHzHLX4QK36aJURJ65-19" target="12">
                    <mxGeometry relative="1" as="geometry"/>
                </mxCell>
                <mxCell id="uoYHzHLX4QK36aJURJ65-19" value="MQTT Broker" style="shape=image;verticalLabelPosition=bottom;labelBackgroundColor=#ffffff;verticalAlign=top;aspect=fixed;imageAspect=0;image=https://raw.githubusercontent.com/github/explore/6afe2c43768e7ef1e252839a1f1c12b730faa007/topics/mqtt/mqtt.png;" vertex="1" parent="1">
                    <mxGeometry x="281.24" y="495" width="45" height="45" as="geometry"/>
                </mxCell>
                <mxCell id="uoYHzHLX4QK36aJURJ65-25" value="&lt;b&gt;Business Logic Layer&lt;/b&gt;" style="text;html=1;align=center;verticalAlign=middle;whiteSpace=wrap;rounded=0;" vertex="1" parent="1">
                    <mxGeometry x="360" y="290" width="141.24" height="30" as="geometry"/>
                </mxCell>
                <mxCell id="uoYHzHLX4QK36aJURJ65-26" value="&lt;b&gt;Data Access Layer&lt;/b&gt;" style="text;html=1;align=center;verticalAlign=middle;whiteSpace=wrap;rounded=0;" vertex="1" parent="1">
                    <mxGeometry x="501.24" y="290" width="140" height="30" as="geometry"/>
                </mxCell>
            </root>
        </mxGraphModel>
    </diagram>
    <diagram id="BODV_t7WUNSDPMqvJ0sl" name="Page-2">
        <mxGraphModel dx="726" dy="476" grid="1" gridSize="10" guides="1" tooltips="1" connect="1" arrows="1" fold="1" page="1" pageScale="1" pageWidth="850" pageHeight="1100" math="0" shadow="0">
            <root>
                <mxCell id="-Lv43kzqtgr3f3sE4uFf-0"/>
                <mxCell id="-Lv43kzqtgr3f3sE4uFf-1" parent="-Lv43kzqtgr3f3sE4uFf-0"/>
            </root>
        </mxGraphModel>
    </diagram>
</mxfile>